<?xml version="1.0" encoding="iso-8859-1"?>
<!-- Generator: Adobe Illustrator 19.0.0, SVG Export Plug-In . SVG Version: 6.00 Build 0)  -->
<svg version="1.1" id="Layer_1" xmlns="http://www.w3.org/2000/svg" xmlns:xlink="http://www.w3.org/1999/xlink" x="0px" y="0px"
	 viewBox="0 0 512 512" style="enable-background:new 0 0 512 512;" xml:space="preserve">
<g>
	<g>
		<path d="M256,0C114.62,0,0,114.62,0,256s114.62,256,256,256s256-114.62,256-256S397.38,0,256,0z M294.238,29.047
			c29.03,4.881,56.175,15.172,80.469,29.858c-30.114-9.847-46.063,6.093-57.079,17.229c-5.965,6.025-9.813,9.728-13.628,9.728
			c-9.941,0-17.229-2.338-21.623-6.938c-4.523-4.727-5.461-11.341-5.461-16.06C276.915,47.838,286.131,32.606,294.238,29.047z
			 M25.6,256c0-80.111,41.148-150.724,103.356-192.026c2.321-0.188,9.071-0.521,15.019,10.197
			c9.173,16.478,8.721,45.79-0.896,59.162c-4.437,6.153-8.951,6.263-12.723,5.538c-17.374-3.191-34.628,1.826-50.022,14.609
			c-21.35,17.749-35.524,48.085-35.524,60.373c0,5.939,2.364,11.366,6.665,15.275c10.923,9.95,31.488,7.987,55.339,5.734
			c10.462-0.973,27.204-2.534,34.065-1.152c0.35,9.301,2.099,18.961,3.789,28.322c3.012,16.708,6.135,33.997,0.922,47.428
			c-6.161,15.923-0.213,34.15,6.69,55.253c4.139,12.646,8.61,26.351,11.383,41.839c-9.796-12.1-21.777-24.875-35.789-31.872
			c-43.827-21.897-88.286-72.064-101.999-113.323C25.83,259.558,25.6,257.809,25.6,256z M256,486.4
			c-99.618,0-184.422-63.667-216.499-152.354c21.769,26.231,49.203,49.681,76.911,63.539c13.653,6.827,26.829,24.149,36.437,36.813
			c8.926,11.733,15.292,20.096,23.825,20.096c1.553,0,3.166-0.273,4.873-0.853c6.938-2.338,10.453-8.533,10.453-18.449
			c0-31.326-8.533-57.438-15.403-78.438c-5.376-16.435-10.027-30.635-7.151-38.042c7.817-20.139,3.874-41.958,0.401-61.21
			c-1.775-9.813-3.447-19.081-3.447-27.102c0-5.939-2.364-11.366-6.665-15.275c-10.94-9.958-31.539-8.004-55.339-5.734
			c-10.01,0.947-25.779,2.475-33.126,1.314c2.825-8.516,12.297-27.759,27.597-39.236c8.909-6.716,17.715-9.097,26.778-7.415
			c15.309,2.765,28.834-2.773,38.204-15.761c15.488-21.513,16.623-61.15,2.5-86.562c-2.935-5.282-6.554-9.378-10.462-12.919
			C186.214,34.091,220.092,25.6,256,25.6c2.227,0,4.386,0.273,6.596,0.333c-6.878,10.94-11.281,24.098-11.281,36.932
			c0,13.5,4.335,25.173,12.561,33.766c6.485,6.775,18.697,14.839,40.124,14.839c14.703,0,24.201-9.609,31.838-17.323
			c11.563-11.699,18.56-18.773,42.086-6.076c25.54,13.798,36.762,14.933,47.701,12.561c12.689,13.841,23.91,29.065,32.947,45.688
			c-18.551,5.632-37.786,11.375-68.847-4.156c-53.649-26.829-96.111-15.659-119.578,31.326c-19.558,39.125-11.853,76.698,0.7,96.998
			c9.387,15.215,22.639,23.927,36.352,23.927c33.101,0,38.4,3.038,38.4,12.8c0,15.821,7.202,30.217,14.148,44.126
			c5.888,11.776,11.452,22.903,11.452,32.674c0,5.171-1.579,11.076-3.115,16.777c-2.987,11.153-6.366,23.774,1.826,34.449
			c3.738,4.881,9.37,8.132,16.939,10.18C349.653,471.194,304.589,486.4,256,486.4z M413.961,423.279
			c-1.374-0.503-2.816-0.879-4.361-0.879c-15.411,0-19.14-2.884-19.14-2.338c-0.503-1.988,1.212-8.397,2.364-12.663
			c1.86-6.963,3.977-14.848,3.977-23.398c0-15.821-7.202-30.216-14.148-44.126c-5.888-11.776-11.452-22.895-11.452-32.674
			c0-38.4-38.511-38.4-64-38.4c-4.437,0-10.146-4.625-14.575-11.776c-9.088-14.703-14.421-42.402,0.427-72.098
			c6.187-12.348,25.011-49.963,85.222-19.874c40.277,20.139,67.789,11.802,87.876,5.709c1.263-0.384,2.21-0.503,3.405-0.836
			C480.324,196.548,486.4,225.562,486.4,256C486.4,321.894,458.445,381.244,413.961,423.279z"/>
	</g>
</g>
<g>
</g>
<g>
</g>
<g>
</g>
<g>
</g>
<g>
</g>
<g>
</g>
<g>
</g>
<g>
</g>
<g>
</g>
<g>
</g>
<g>
</g>
<g>
</g>
<g>
</g>
<g>
</g>
<g>
</g>
</svg>
