<?xml version="1.0" encoding="iso-8859-1"?>
<!-- Generator: Adobe Illustrator 19.0.0, SVG Export Plug-In . SVG Version: 6.00 Build 0)  -->
<svg version="1.1" id="Layer_1" xmlns="http://www.w3.org/2000/svg" xmlns:xlink="http://www.w3.org/1999/xlink" x="0px" y="0px"
	 viewBox="0 0 512 512" style="enable-background:new 0 0 512 512;" xml:space="preserve">
<g>
	<g>
		<path d="M358.4,128l-140.8,52.804v-80.213C239.642,94.882,256,75.034,256,51.2C256,22.921,233.079,0,204.8,0
			c-28.279,0-51.2,22.921-51.2,51.2c0,23.834,16.358,43.682,38.4,49.391v89.813L153.6,204.8L0,128v307.2L153.591,512L358.4,435.2
			L512,512V204.8L358.4,128z M140.8,476.979l-115.2-57.6V169.421l115.2,57.6V476.979z M179.2,51.2c0-14.114,11.486-25.6,25.6-25.6
			s25.6,11.486,25.6,25.6s-11.486,25.6-25.6,25.6S179.2,65.314,179.2,51.2z M345.6,412.655l-179.2,67.2V227.337l25.6-9.6V358.4h25.6
			V208.137l128-48V412.655z M486.4,470.579l-115.2-57.6V163.021l115.2,57.6V470.579z"/>
	</g>
</g>
<g>
</g>
<g>
</g>
<g>
</g>
<g>
</g>
<g>
</g>
<g>
</g>
<g>
</g>
<g>
</g>
<g>
</g>
<g>
</g>
<g>
</g>
<g>
</g>
<g>
</g>
<g>
</g>
<g>
</g>
</svg>
